<?xml version="1.0" encoding="UTF-8" standalone="no"?>
<svg
   height="300px"
   version="1.2"
   width="300px"
   id="svg4"
   sodipodi:docname="original.svg"
   xml:space="preserve"
   inkscape:version="1.3.2 (091e20e, 2023-11-25)"
   xmlns:inkscape="http://www.inkscape.org/namespaces/inkscape"
   xmlns:sodipodi="http://sodipodi.sourceforge.net/DTD/sodipodi-0.dtd"
   xmlns="http://www.w3.org/2000/svg"
   xmlns:svg="http://www.w3.org/2000/svg"><sodipodi:namedview
     id="namedview4"
     pagecolor="#ffffff"
     bordercolor="#000000"
     borderopacity="0.25"
     inkscape:showpageshadow="2"
     inkscape:pageopacity="0.0"
     inkscape:pagecheckerboard="0"
     inkscape:deskcolor="#d1d1d1"
     inkscape:zoom="1.5685361"
     inkscape:cx="131.01388"
     inkscape:cy="178.19163"
     inkscape:window-width="1392"
     inkscape:window-height="952"
     inkscape:window-x="0"
     inkscape:window-y="25"
     inkscape:window-maximized="0"
     inkscape:current-layer="svg4" /><defs
     id="defs1" /><path
     style="fill:#000000"
     d="m 110.38693,127.38145 c -0.0883,-0.0883 -0.31733,-0.0977 -0.50906,-0.021 -0.21187,0.0848 -0.14893,0.14772 0.16047,0.16046 0.27998,0.0115 0.43684,-0.0512 0.34859,-0.13949 z"
     id="path29" /><path
     style="fill:#000000"
     d="m 99.375365,127.36765 c -0.17982,-0.0727 -0.53837,-0.0772 -0.79678,-0.01 -0.25842,0.0673 -0.11129,0.12686 0.32694,0.13227 0.43823,0.005 0.64966,-0.0497 0.46984,-0.12243 z"
     id="path28" /><path
     style="fill:#000000"
     d="m 165.08152,129.86581 c -0.0737,-0.1826 -0.13396,-0.0332 -0.13396,0.33199 0,0.36519 0.0603,0.51459 0.13396,0.33199 0.0737,-0.18259 0.0737,-0.48139 0,-0.66398 z"
     id="path27" /><path
     style="fill:#000000"
     d="m 141.31332,187.10134 c -11.00374,-0.0384 -28.93133,-0.0384 -39.8391,1e-5 -10.907772,0.0384 -1.904715,0.0698 20.00679,0.0698 21.9115,-1e-5 30.83604,-0.0314 19.83231,-0.0698 z"
     id="path21" /><path
     id="path20"
     style="fill:#ffa442;fill-opacity:1"
     d="m 80.497249,187.20686 c -0.596526,-0.33103 -0.537827,-0.40269 2.124752,-2.5942 3.033725,-2.49699 26.456189,-21.66967 26.958659,-22.06727 0.21802,-0.17251 1.0887,0.30601 2.78874,1.53268 1.35947,0.98092 3.48766,2.27476 4.72931,2.87519 2.13617,1.033 2.38741,1.09169 4.67284,1.09169 2.35104,0 2.48176,-0.0334 4.91349,-1.25669 1.37401,-0.69118 3.45399,-1.97611 4.62217,-2.85539 1.95497,-1.4715 2.74369,-1.81463 2.60074,-1.13145 -0.0308,0.14715 0.10056,0.25173 0.29189,0.2324 0.19133,-0.0193 2.8459,2.0008 5.89905,4.48919 3.05315,2.48839 9.58488,7.79734 14.51497,11.79766 4.93009,4.00032 8.9638,7.35333 8.9638,7.45115 0,0.75727 -1.96933,0.79415 -41.90995,0.78488 -32.471536,-0.008 -40.679289,-0.0773 -41.170461,-0.34984 z M 78.18919,159.71262 v -21.69965 l 3.851112,2.94941 c 2.118112,1.62218 8.213494,6.21229 13.545293,10.20025 5.331805,3.98796 9.813705,7.36473 9.959775,7.50394 0.17422,0.16602 0.0372,0.43722 -0.39839,0.78829 -0.98948,0.79757 -10.298981,8.37548 -18.673094,15.19987 -4.118466,3.35629 -7.514299,5.93891 -7.676863,5.83844 -0.163899,-0.1013 -0.216696,-0.0591 -0.120606,0.0964 0.094,0.15209 0.02283,0.39943 -0.158159,0.54963 -0.261239,0.21681 -0.329068,-4.19978 -0.329068,-21.42655 z m 82.70243,17.94743 c -2.39371,-1.94249 -8.53531,-6.91807 -13.64799,-11.05685 -5.11269,-4.13879 -9.34198,-7.64801 -9.39843,-7.79827 -0.0594,-0.15809 0.0863,-0.2007 0.34579,-0.10113 0.24663,0.0946 0.38433,0.0684 0.30599,-0.0584 -0.0783,-0.12676 4.30277,-3.56151 9.7358,-7.63279 5.43304,-4.07127 11.52655,-8.68223 13.54114,-10.24656 l 3.66289,-2.84425 v 21.63502 c 0,11.89926 -0.0434,21.63502 -0.0965,21.63502 -0.0531,0 -2.05499,-1.58931 -4.4487,-3.5318 z m -41.4163,-15.55773 c -1.80045,-0.7046 -3.29943,-1.77927 -19.507425,-13.9854 -23.254706,-17.51298 -21.340757,-15.99909 -21.686635,-17.15354 -0.383629,-1.28044 0.09916,-2.71196 1.18909,-3.52579 l 0.749608,-0.55971 41.081262,-0.0799 c 29.43082,-0.0573 41.36732,0.003 42.08994,0.21367 1.87848,0.54674 2.72435,3.3141 1.4919,4.88092 -0.86156,1.09529 -32.33411,24.88309 -37.76963,28.5473 -3.29717,2.22269 -5.1668,2.62963 -7.63811,1.66248 z m 71.79437,-30.18915 c -5.51953,-1.48648 -9.9909,-6.22181 -12.08427,-12.79763 -0.69414,-2.18047 -0.96709,-2.72483 -1.36712,-2.7265 -0.83899,-0.003 -2.20076,-1.72352 -2.78283,-3.51494 -0.78091,-2.4034 -1.09965,-4.48885 -1.09965,-7.19471 0,-2.36968 0.003,-2.37915 0.92471,-3.24872 l 0.92471,-0.87211 -0.28573,-1.54959 c -0.15715,-0.852281 -0.44707,-1.936633 -0.64427,-2.409675 l -0.35853,-0.860078 1.37952,-0.395398 c 2.19055,-0.627855 4.59821,-1.131993 7.88657,-1.651359 4.30242,-0.679529 17.57542,-0.685481 22.0443,-0.0099 3.51158,0.530873 8.7795,1.684511 9.04857,1.981576 0.10046,0.110913 0.004,1.254871 -0.21423,2.542129 -0.38303,2.258775 -0.37842,2.360755 0.13189,2.921535 1.23373,1.35573 1.48473,2.69299 1.10066,5.86408 -0.36434,3.00822 -1.36875,6.2585 -2.26208,7.32017 -0.3728,0.44304 -1.04543,0.90079 -1.49474,1.01722 -0.72028,0.18664 -0.8697,0.39896 -1.263,1.79465 -2.00175,7.10358 -6.66384,12.25483 -12.49575,13.80683 -1.81478,0.48296 -5.26187,0.4744 -7.08873,-0.0176 z" /><path
     id="path4"
     style="fill:#516bd2;fill-opacity:1"
     d="m 37.487092,230.19877 c -2.000527,-0.56284 -3.386246,-1.33255 -4.619796,-2.5661 -1.078334,-1.07834 -2.235461,-3.23382 -2.3985,-4.4679 -0.07783,-0.58913 0.04683,-0.68474 1.241448,-0.95203 0.730383,-0.16342 1.812738,-0.37437 2.405233,-0.46877 1.055955,-0.16825 1.084248,-0.15205 1.430423,0.81923 0.544037,1.52644 1.241304,2.35483 2.49151,2.96004 2.194676,1.06243 5.816119,0.50228 6.917341,-1.06993 0.240697,-0.34365 0.433583,-1.1361 0.433583,-1.78134 0,-1.75404 -0.883283,-2.42416 -4.986945,-3.78348 -4.410192,-1.46086 -6.130385,-2.34506 -7.426143,-3.81712 -3.18454,-3.61783 -1.64778,-9.34167 3.094329,-11.5252 2.111061,-0.97204 5.63769,-1.12365 8.179402,-0.35163 2.811209,0.85388 4.872793,2.93916 5.605583,5.67001 0.295758,1.10219 0.350482,1.07074 -2.474272,1.4221 -0.730383,0.0908 -1.513101,0.21532 -1.739372,0.27661 -0.276885,0.075 -0.601821,-0.28052 -0.99377,-1.08727 -0.809444,-1.66608 -1.869178,-2.2537 -4.066626,-2.25494 -2.201107,-0.001 -3.374376,0.68342 -3.936798,2.29736 -0.318629,0.91434 -0.322445,1.22095 -0.02416,1.94108 0.499244,1.20528 1.737686,1.91234 5.847237,3.33832 3.859829,1.33934 5.322289,2.07487 6.434789,3.23634 1.690888,1.76532 2.108452,4.88064 0.999653,7.45811 -0.762561,1.77262 -2.70905,3.55246 -4.72495,4.32042 -1.969506,0.75029 -5.724561,0.93884 -7.689199,0.38609 z m 31.140714,0.0421 c -3.119672,-0.7979 -5.83702,-3.03643 -6.611367,-5.44637 -0.74084,-2.30567 -0.798962,-2.20403 1.565082,-2.73691 2.740599,-0.61775 2.697059,-0.62132 2.8691,0.23487 0.440025,2.18986 2.666,3.78472 5.282418,3.78472 2.882372,0 4.72979,-1.29364 4.72979,-3.31199 0,-1.92026 -0.734061,-2.47003 -5.327649,-3.99011 -6.708502,-2.21992 -8.572016,-3.97632 -8.596472,-8.10235 -0.01967,-3.31909 1.523927,-5.70775 4.605362,-7.12661 2.149826,-0.98989 5.633827,-1.12483 8.281157,-0.32073 1.631979,0.4957 2.144884,0.8099 3.445833,2.11085 1.168343,1.16834 1.62767,1.86254 1.949556,2.94645 0.231605,0.7799 0.362315,1.47678 0.290466,1.54863 -0.128155,0.12815 -4.753873,0.86687 -4.771873,0.76205 -0.112509,-0.65516 -1.293272,-2.31058 -1.974011,-2.76756 -1.287829,-0.8645 -4.078905,-0.86428 -5.366122,4.4e-4 -1.281084,0.86059 -1.778798,2.36691 -1.220985,3.69527 0.499801,1.19021 1.692908,1.84868 6.108403,3.37121 3.871622,1.33499 4.568173,1.69016 5.974342,3.04631 1.985389,1.91477 2.416181,5.01876 1.082575,7.80028 -0.732835,1.52849 -2.860522,3.37537 -4.692624,4.07331 -1.865256,0.71058 -5.680982,0.92493 -7.622981,0.42824 z m 21.247518,0.11861 c -1.864551,-0.49033 -3.321354,-1.67517 -4.285581,-3.48552 -0.443108,-0.83195 -0.503677,-1.71763 -0.576679,-8.43261 l -0.08157,-7.50303 h 2.405516 2.405516 v 6.11719 c 0,6.48709 0.125859,7.29387 1.301267,8.34145 0.779454,0.69469 3.36606,0.89069 4.432818,0.3359 2.193114,-1.14057 2.563424,-2.6488 2.444944,-9.95791 l -0.0784,-4.83726 2.589545,3.1e-4 2.58954,3.2e-4 v 9.56138 9.56139 h -2.52314 -2.523145 v -1.11448 -1.11448 l -0.86318,0.81915 c -0.47475,0.45053 -1.281496,1.03108 -1.792764,1.2901 -1.024823,0.51921 -4.148176,0.75905 -5.444677,0.4181 z m 39.222336,-19.91807 c -4.19658,0.009 -7.02753,1.9082 -8.13086,5.47656 -0.16125,0.52153 -0.0905,0.59756 0.5625,0.60156 0.41156,0.002 1.43969,0.16825 2.28515,0.36719 l 1.53711,0.36133 0.37305,-0.89258 c 0.57497,-1.37608 1.81142,-2.0139 3.66992,-1.89453 2.01194,0.12924 3.09557,1.09588 3.30469,2.95117 l 0.13867,1.22851 h -2.00391 c -2.62684,0 -5.80821,0.62517 -7.56836,1.48633 -4.4843,2.19397 -3.68947,8.53036 1.26172,10.05664 2.56601,0.79101 5.53156,0.40192 7.2461,-0.95312 l 0.99609,-0.78711 v 0.80859 0.8086 h 2.38867 2.39063 v -6.72461 c 0,-7.62275 -0.19555,-8.81148 -1.74219,-10.52344 -1.2888,-1.42654 -3.22227,-2.20116 -5.85156,-2.34766 -0.29179,-0.0163 -0.57765,-0.024 -0.85742,-0.0234 z m 3.67187,11.32617 v 0.98633 c 0,1.36853 -0.6889,2.6821 -1.75,3.33789 -2.81202,1.73793 -6.68568,0.18641 -5.80273,-2.32422 0.44557,-1.26699 1.76372,-1.785 4.82812,-1.89844 z m 32.16389,8.40439 c -6.58082,-1.76969 -10.50318,-8.50541 -9.34459,-16.0471 1.04052,-6.77309 6.27925,-11.41996 12.87449,-11.41996 5.14439,0 9.09769,2.27882 11.18242,6.44595 1.30015,2.59885 1.26474,2.77534 -0.59723,2.97707 -0.83995,0.091 -1.95774,0.22664 -2.484,0.30143 -0.87277,0.12404 -0.98682,0.0636 -1.29827,-0.68835 -1.13273,-2.73464 -3.5026,-4.3029 -6.58396,-4.35692 -2.48796,-0.0436 -3.96452,0.58096 -5.59753,2.36774 -1.49393,1.63459 -2.12078,3.17116 -2.3473,5.75385 -0.28549,3.25499 0.7567,6.586 2.6173,8.36532 1.39776,1.33671 2.98485,1.92803 5.19283,1.93475 3.26398,0.01 5.61724,-1.24703 6.8261,-3.64609 0.4794,-0.95142 0.94421,-1.03497 3.82975,-0.68845 l 1.41649,0.1701 -0.17722,0.95636 c -0.61575,3.32273 -4.08488,6.50454 -8.28458,7.59843 -1.89944,0.49474 -5.33791,0.48325 -7.2247,-0.0241 z m 27.19549,-19.76572 c -4.24772,0 -7.42029,2.05998 -8.23438,5.3457 -0.16788,0.67757 -0.12979,0.70286 1.35742,0.88867 0.8417,0.10516 1.80262,0.29365 2.13477,0.41993 0.5236,0.19907 0.68055,0.096 1.17578,-0.78516 1.00692,-1.79158 3.68165,-2.46044 5.47461,-1.36719 1.01321,0.6178 1.29233,1.10912 1.48242,2.60352 l 0.14453,1.1289 -2.16601,0.004 c -3.7292,0.008 -7.42556,1.07096 -9.01367,2.5918 -0.93339,0.89385 -1.61139,3.12229 -1.36719,4.49414 0.38002,2.13495 2.06008,3.88464 4.3164,4.49219 v -0.002 c 2.81095,0.75689 5.84238,0.24087 7.39063,-1.25976 l 0.89062,-0.86328 v 0.98046 0.98243 h 2.41211 2.41407 l -0.0899,-7.10352 c -0.0882,-7.05257 -0.0948,-7.11754 -0.79687,-8.61523 -1.21694,-2.59603 -3.7783,-3.93555 -7.52539,-3.93555 z m 1.01953,11.42187 h 2.36718 l -0.125,1.50586 c -0.10502,1.26649 -0.25641,1.62123 -0.94921,2.24024 -0.45291,0.40468 -1.27842,0.86134 -1.83399,1.01562 -4.14676,1.15152 -6.66057,-2.32405 -3.01172,-4.16406 0.9645,-0.48637 1.62631,-0.59766 3.55274,-0.59766 z m 52.82031,-11.38867 c -2.20368,0.0126 -3.86311,0.50153 -5.30078,1.54297 -1.12187,0.81268 -2.26383,2.5056 -2.56445,3.80274 -0.14625,0.63103 -0.0871,0.73132 0.43359,0.73632 0.33145,0.003 1.34226,0.16018 2.24609,0.34961 1.58805,0.33284 1.64823,0.32686 1.78321,-0.21093 0.0768,-0.30608 0.49908,-0.90233 0.93945,-1.32422 0.62557,-0.59934 1.11264,-0.79257 2.22461,-0.88477 2.37118,-0.19663 3.69207,0.8009 4.05273,3.06055 l 0.17969,1.1289 h -2.38086 c -2.57965,10e-6 -5.66247,0.64875 -7.47656,1.57422 -2.0585,1.05017 -3.09143,3.31174 -2.65235,5.80469 0.34667,1.96828 1.82029,3.49933 4.03321,4.19141 2.56627,0.8026 6.13869,0.22068 7.59765,-1.23828 l 0.8125,-0.8125 v 0.95117 0.94922 h 2.41407 2.41601 l -0.11914,-7.10352 c -0.1321,-7.77662 -0.24363,-8.43522 -1.69336,-10.12891 -1.24908,-1.45925 -3.17106,-2.22134 -5.96679,-2.36523 -0.3379,-0.0174 -0.66371,-0.0252 -0.97852,-0.0234 z m 1.4082,11.38867 h 2.41407 l -0.16602,1.49805 c -0.13575,1.23332 -0.31046,1.63132 -0.99414,2.24219 -0.45696,0.40829 -1.28623,0.8672 -1.8418,1.02148 -1.3438,0.37316 -2.14065,0.33842 -3.30859,-0.14648 -2.05074,-0.85143 -1.89882,-2.91035 0.29687,-4.01758 0.9697,-0.48899 1.62392,-0.59766 3.59961,-0.59766 z m -101.00164,8.16596 c -1.12427,-0.36043 -2.6052,-2.0097 -2.96364,-3.30052 -0.15498,-0.55813 -0.28245,-3.37524 -0.28327,-6.26026 l -0.001,-5.24548 h -1.72636 -1.72636 v -2.12475 -2.12475 h 1.72636 1.72636 v -2.61895 -2.61894 l 1.39437,-0.16748 c 0.7669,-0.0921 1.84256,-0.16853 2.39034,-0.1698 l 0.99598,-0.002 v 2.78873 2.78874 h 2.39035 2.39034 v 2.12475 2.12475 h -2.40711 -2.40711 l 0.0832,4.80426 0.0832,4.80427 0.78258,0.67257 c 0.69803,0.59991 0.94908,0.65747 2.32394,0.5328 l 1.54137,-0.13977 v 2.06637 2.06637 l -0.82998,0.16599 c -1.24342,0.24869 -4.49589,0.14986 -5.48301,-0.1666 z m 116.82503,-0.0104 c -1.19665,-0.38201 -2.57692,-1.79497 -2.968,-3.03829 -0.17746,-0.56419 -0.36926,-3.34791 -0.43953,-6.37927 l -0.12467,-5.37828 h -1.5663 -1.56629 v -2.12475 -2.12475 h 1.59356 1.59357 v -2.61895 -2.61894 l 1.39436,-0.16748 c 0.76691,-0.0921 1.90232,-0.16853 2.52315,-0.1698 l 1.12877,-0.002 v 2.78873 2.78874 h 2.39035 2.39034 v 2.12475 2.12475 h -2.39034 -2.39035 v 4.52829 c 0,5.26152 0.194,5.95832 1.73965,6.24828 0.51785,0.0971 1.41393,0.1011 1.99129,0.009 l 1.04975,-0.16787 v 2.0947 2.09469 l -0.82998,0.16599 c -1.2603,0.25206 -4.5008,0.14813 -5.51933,-0.17702 z M 53.621747,220.49975 v -9.56138 h 2.65594 2.655939 v 9.56138 9.56139 h -2.655939 -2.65594 z m 53.118803,0 v -9.56138 h 2.52314 2.52314 v 1.23099 1.23099 l 0.55061,-0.69999 c 1.1751,-1.49389 4.04159,-2.59805 5.67831,-2.18726 0.65844,0.16526 0.67652,0.23 0.67652,2.42228 v 2.25249 h -1.73694 c -2.14823,0 -3.53845,0.64608 -4.41135,2.0501 -0.59869,0.96295 -0.62783,1.24716 -0.70901,6.9137 l -0.0847,5.90947 h -2.50489 -2.50488 z m 97.34019,0 v -9.56138 h 2.29439 2.29439 l 0.17259,0.92001 0.1726,0.92001 1.14564,-0.8745 c 2.86888,-2.18986 7.43454,-1.88566 9.55702,0.63677 0.38357,0.45585 0.6974,0.93876 0.6974,1.07315 0,0.13438 0.5677,-0.34215 1.26157,-1.05895 1.57715,-1.62929 3.49097,-2.27808 6.15727,-2.0873 2.91242,0.20838 4.92839,1.62505 5.8615,4.11902 0.48124,1.28622 0.53054,2.07115 0.53054,8.44628 v 7.02828 h -2.52314 -2.52314 v -6.38745 c 0,-7.10236 -0.0985,-7.59584 -1.64744,-8.24921 -1.27162,-0.53641 -3.26258,-0.44004 -4.13593,0.20021 -1.52437,1.11749 -1.6524,1.76771 -1.65285,8.39418 l -4.1e-4,6.04227 h -2.52315 -2.52314 v -6.1172 c 0,-6.66225 -0.14893,-7.52255 -1.44987,-8.37496 -0.89182,-0.58434 -3.19622,-0.6017 -4.2972,-0.0324 -1.53602,0.79431 -1.68956,1.55673 -1.68956,8.38959 v 6.13493 h -2.58954 -2.58954 z M 54.716153,208.09377 c -1.044368,-0.51449 -1.751982,-1.92187 -1.493179,-2.96979 0.245485,-0.994 1.416417,-2.12097 2.394314,-2.30442 1.721301,-0.32292 3.581932,1.13514 3.581932,2.80693 0,0.97919 -0.80121,2.15371 -1.73547,2.54407 -1.153902,0.48213 -1.640654,0.46852 -2.747597,-0.0768 z M 187.79792,185.7002 c -1.65171,-0.12971 -4.46037,-0.42412 -6.24146,-0.65426 -3.19857,-0.41329 -10.9289,-1.8743 -11.37462,-2.14977 -0.12668,-0.0783 -0.22993,-10.61283 -0.22993,-23.46068 v -23.31857 l 5.23245,-2.16252 c 2.87785,-1.18939 5.3175,-2.073 5.42144,-1.96358 0.10394,0.10942 2.29797,5.3352 4.87561,11.61285 2.57765,6.27765 4.71811,11.44538 4.75657,11.48384 0.0385,0.0385 0.51322,-2.20308 1.05501,-4.98121 l 0.98506,-5.05115 -0.9377,-2.50358 c -1.53579,-4.10043 -1.2879,-5.03527 1.45898,-5.50215 2.45152,-0.41667 5.19271,-0.0831 6.00672,0.73087 0.86543,0.86543 0.80039,1.80421 -0.33504,4.83571 l -0.96183,2.56801 0.86956,4.39148 c 0.47826,2.41532 0.94558,4.67572 1.03849,5.02312 0.12963,0.4847 1.30107,-2.11032 5.03524,-11.15419 2.67647,-6.48221 4.89869,-11.82153 4.93826,-11.86514 0.0769,-0.0847 14.70129,5.97611 17.77326,7.36581 2.81041,1.27138 5.36844,3.09524 6.56621,4.68168 1.89817,2.51411 2.17532,3.78346 3.70777,16.98155 l 1.38773,11.95173 -0.54999,1.24181 c -0.7434,1.67854 -2.28389,2.75306 -6.7609,4.71589 -8.2716,3.62646 -16.0756,5.71077 -25.44212,6.79514 -4.34347,0.50285 -14.15542,0.7108 -18.27477,0.38731 z m 26.22542,-92.344751 c -6.1132,-1.860433 -12.33645,-2.570211 -20.96475,-2.391082 -6.93596,0.143995 -10.40068,0.580236 -15.67005,1.973012 -4.05901,1.072859 -3.56656,1.170859 -6.13732,-1.221352 -2.5524,-2.375128 -3.02357,-3.200944 -2.82607,-4.953216 0.32541,-2.887011 3.21487,-5.129491 13.01113,-10.097801 11.52775,-5.846456 15.34752,-5.794884 27.55795,0.372069 7.57076,3.823665 10.83656,6.08948 11.96495,8.301313 1.18969,2.331983 0.41737,3.887819 -3.74871,7.551809 l -1.21235,1.066235 z M 68.193346,178.32518 c -1.098979,-0.5723 -1.62204,-1.07056 -2.287878,-2.1794 l -0.86318,-1.43748 -0.01825,-41.57721 c -0.02861,-65.160224 -0.08325,-58.534752 0.493469,-59.838515 0.606227,-1.370478 1.790068,-2.599706 3.157992,-3.279066 0.969088,-0.481283 2.053108,-0.507492 24.121364,-0.58319 16.780397,-0.05756 23.397547,0.004 24.169057,0.224987 0.84211,0.241167 2.01427,1.248802 5.65349,4.859952 l 4.59111,4.555704 11.63154,0.132797 11.63154,0.132797 1.29481,0.800883 c 0.94226,0.582822 1.49687,1.187674 2.03693,2.221479 0.70861,1.356431 0.74213,1.587174 0.74213,5.108583 v 3.687986 h 2.32809 c 1.74491,0 2.55991,0.122071 3.25353,0.487314 0.9747,0.513255 1.85391,1.889835 1.8546,2.903763 2.3e-4,0.331287 -1.18303,6.008356 -2.62947,12.615716 -1.44643,6.60735 -2.71086,12.4018 -2.80983,12.87655 l -0.17997,0.86318 h -38.35437 c -37.55783,0 -38.38308,0.0109 -39.735778,0.52489 -0.759762,0.28868 -1.444819,0.46145 -1.522348,0.38392 -0.162603,-0.1626 4.701006,-26.999341 5.074317,-27.999393 0.383228,-1.026619 1.5469,-2.100962 2.589314,-2.390546 0.597557,-0.166001 12.48495,-0.262976 32.351175,-0.263913 l 31.40649,-0.0015 v -2.105475 c 0,-1.958236 -0.0489,-2.143968 -0.69981,-2.655939 -0.68239,-0.536772 -0.97351,-0.550464 -11.70359,-0.550464 -7.6504,0 -11.18059,-0.09133 -11.58392,-0.299679 -0.31907,-0.164824 -1.55371,-1.242595 -2.74364,-2.395048 l -2.16352,-2.09537 -21.137335,0.0711 -21.137321,0.0711 -0.868212,0.868205 -0.868211,0.868205 -0.07131,20.217047 -0.07131,20.21705 -0.831413,0.94693 c -0.457278,0.52081 -1.142292,1.60972 -1.522254,2.41981 l -0.69084,1.47289 -0.07159,25.43062 -0.07159,25.43062 h -1.159658 c -0.752375,0 -1.660017,-0.26057 -2.58435,-0.74192 z" /></svg>
